<svg width="345" height="227" viewBox="0 0 345 227" fill="none" xmlns="http://www.w3.org/2000/svg">
<path d="M77.9723 103.428C73.7697 107.709 69.2525 112.476 64.0754 115.336C49.803 123.248 32.9522 121.919 20.2431 111.745C3.57498 98.3871 1.49401 74.6424 14.2235 58.0991C27.7143 40.5822 53.8634 38.2797 70.5518 53.1088C73.1437 55.4146 75.6307 57.832 78.0129 60.361C78.076 60.43 78.1533 60.4845 78.2395 60.5208C78.3257 60.5571 78.4187 60.5745 78.5122 60.5716C78.6057 60.5687 78.6974 60.5457 78.7812 60.5041C78.865 60.4625 78.9387 60.4033 78.9975 60.3306L126.89 0.50715C127.014 0.349253 127.171 0.221507 127.35 0.133628C127.53 0.0457502 127.727 5.26904e-05 127.926 0L162.582 0.0101452C162.658 0.00946875 162.733 0.0307737 162.797 0.0716198C162.862 0.112466 162.914 0.171194 162.947 0.241077C162.979 0.31096 162.992 0.389166 162.983 0.466724C162.974 0.544282 162.944 0.618054 162.896 0.679579L98.315 81.2455C98.1734 81.4211 98.0962 81.6403 98.0962 81.867C98.0962 82.0938 98.1734 82.3145 98.315 82.4931L162.998 163.221C163.04 163.273 163.066 163.336 163.074 163.402C163.082 163.469 163.071 163.536 163.042 163.596C163.014 163.657 162.969 163.708 162.912 163.744C162.856 163.78 162.791 163.799 162.724 163.799L128.098 163.779C127.855 163.779 127.614 163.725 127.394 163.619C127.175 163.514 126.982 163.361 126.829 163.171L79.0381 103.479C78.9751 103.4 78.896 103.336 78.8061 103.29C78.7162 103.244 78.6175 103.218 78.5167 103.213C78.4158 103.208 78.3151 103.225 78.2212 103.262C78.1273 103.299 78.0425 103.356 77.9723 103.428ZM52.1276 74.2874C45.9862 68.6681 35.8757 71.5082 34.485 79.8559C32.8812 89.5222 43.5499 96.0441 51.4576 89.7149C53.8804 87.7809 56.4587 85.3094 59.1928 82.3003C59.4973 81.969 59.4939 81.6377 59.1826 81.3063C56.6719 78.6353 54.3202 76.2957 52.1276 74.2874Z" fill="white"/>
<path d="M154.745 82.1077L219.834 163.252C219.874 163.301 219.9 163.361 219.908 163.424C219.915 163.488 219.905 163.552 219.877 163.61C219.849 163.668 219.806 163.716 219.751 163.75C219.697 163.783 219.634 163.801 219.57 163.799L184.295 163.779C184.244 163.78 184.194 163.769 184.149 163.748C184.103 163.727 184.063 163.696 184.031 163.657L118.566 82.0671C118.517 82.0072 118.49 81.9318 118.49 81.8541C118.49 81.7764 118.517 81.7011 118.566 81.6411L183.828 0.13192C183.86 0.0931257 183.9 0.0620409 183.946 0.0409691C183.991 0.0198972 184.041 0.00938493 184.092 0.0102085H219.417C219.481 0.00914666 219.544 0.0264204 219.599 0.059998C219.653 0.0935756 219.697 0.142046 219.725 0.19967C219.753 0.257294 219.763 0.321664 219.755 0.385154C219.748 0.448645 219.722 0.508597 219.681 0.557924L154.745 81.6817C154.695 81.7416 154.668 81.817 154.668 81.8947C154.668 81.9724 154.695 82.0477 154.745 82.1077Z" fill="white"/>
<path d="M268.386 60.2292C270.572 57.707 272.873 55.3944 275.289 53.2914C291.256 39.3955 314.594 39.862 329.546 55.4113C347.636 74.2265 341.565 105.213 318.472 116.442C307.698 121.676 296.596 121.845 285.166 116.949C278.72 114.19 273.106 108.733 268.417 103.601C267.916 103.046 267.428 103.06 266.955 103.641L230.756 148.778C230.676 148.877 230.575 148.957 230.46 149.012C230.345 149.068 230.219 149.096 230.091 149.096C229.964 149.096 229.838 149.068 229.722 149.012C229.607 148.957 229.506 148.877 229.426 148.778L212.362 127.538C212.265 127.414 212.212 127.261 212.212 127.105C212.212 126.948 212.265 126.797 212.362 126.676L247.921 82.3714C248.032 82.233 248.092 82.0614 248.092 81.8845C248.092 81.7076 248.032 81.536 247.921 81.3976L212.159 36.8191C212.118 36.7677 212.095 36.7041 212.095 36.6393C212.095 36.5745 212.118 36.5126 212.159 36.4641L229.721 14.3625C229.765 14.3056 229.822 14.2596 229.887 14.2279C229.952 14.1962 230.024 14.1798 230.096 14.1798C230.169 14.1798 230.24 14.1962 230.305 14.2279C230.37 14.2596 230.427 14.3056 230.472 14.3625L267.036 60.1988C267.116 60.3004 267.217 60.3832 267.332 60.441C267.448 60.4989 267.575 60.5304 267.704 60.5333C267.833 60.5362 267.961 60.5104 268.079 60.4578C268.197 60.4053 268.302 60.3272 268.386 60.2292ZM295.469 90.3235C301.773 94.8574 310.777 90.7495 311.721 83.3451C312.756 75.1293 305.234 69.2666 297.631 72.0255C293.815 73.4151 290.414 77.807 287.521 80.7789C287.276 81.0274 287.135 81.3595 287.123 81.7102C287.112 82.061 287.232 82.4052 287.46 82.6757C290.174 85.8876 292.843 88.4369 295.469 90.3235Z" fill="white"/>
<path d="M29.8493 226H22.4573L15.2573 213.328H11.0813V226H4.36125V192.4H22.5533L28.1213 195.616V210.112L22.5533 213.328L29.8493 226ZM11.0813 198.16V207.568H21.4013V198.16H11.0813ZM49.0031 211.6V220.24H62.3951V226H42.2831V192.4H62.3951V198.16H49.0031V205.84H59.5151V211.6H49.0031ZM90.1789 192.4L102.179 226H95.5549L93.0109 218.752H80.4349L77.8909 226H71.2669L83.2669 192.4H90.1789ZM86.6749 200.848L82.4509 212.992H90.9469L86.7709 200.848H86.6749ZM112.971 226V192.4H119.691V220.24H131.163V226H112.971ZM160.924 208.96V195.376L166.492 192.16H178.636L184.204 195.376V201.76H177.484V197.92H167.644V205.936H178.636L184.204 209.152V223.024L178.636 226.24H166.012L160.444 223.024V216.64H167.164V220.48H177.484V212.176H166.492L160.924 208.96ZM198.377 226V192.4H205.097V207.52H205.193L217.721 192.4H225.689L212.441 208.144L227.177 226H219.113L208.409 212.944L205.097 216.832V226H198.377ZM237.518 226V192.4H244.238V226H237.518ZM258.377 226V192.4H265.097V220.24H276.569V226H258.377ZM287.861 226V192.4H294.581V220.24H306.053V226H287.861ZM317.346 208.96V195.376L322.914 192.16H335.058L340.626 195.376V201.76H333.906V197.92H324.066V205.936H335.058L340.626 209.152V223.024L335.058 226.24H322.434L316.866 223.024V216.64H323.586V220.48H333.906V212.176H322.914L317.346 208.96Z" fill="white"/>
</svg>
