<svg width="570" height="333" viewBox="0 0 570 333" fill="none" xmlns="http://www.w3.org/2000/svg">
<path d="M96.355 249.6H99.555V270.016L95.843 272.16H86.467L82.755 270.016V249.6H85.955V268.96H96.355V249.6ZM108.518 255.072V272H105.318V249.6H108.23L119.814 266.528H119.878V249.6H123.078V272H120.166L108.582 255.072H108.518ZM128.849 272V249.6H132.049V269.12H140.337V272H128.849ZM147.361 261.92V269.12H156.929V272H144.161V249.6H156.929V252.48H147.361V259.04H155.009V261.92H147.361ZM171.139 249.6L179.139 272H176.003L174.115 266.688H164.195L162.307 272H159.171L167.171 249.6H171.139ZM169.123 252.768L165.219 263.808H173.091L169.187 252.768H169.123ZM182.661 260.16V251.584L186.373 249.44H193.829L197.541 251.584V254.88H194.341V252.32H185.861V259.104H193.829L197.541 261.248V270.016L193.829 272.16H186.053L182.341 270.016V266.72H185.541V269.28H194.341V262.304H186.373L182.661 260.16ZM206.486 261.92V272H203.286V249.6H206.486V259.04H217.206V249.6H220.406V272H217.206V261.92H206.486ZM239.754 272V262.112L232.234 249.6H235.818L241.322 259.136H241.386L246.922 249.6H250.506L242.954 262.144V272H239.754ZM270.836 270.016L267.124 272.16H257.748L254.036 270.016V251.584L257.748 249.44H267.124L270.836 251.584V270.016ZM257.236 252.32V269.28H267.636V252.32H257.236ZM290.199 249.6H293.399V270.016L289.687 272.16H280.311L276.599 270.016V249.6H279.799V268.96H290.199V249.6ZM307.193 263.072H302.361V272H299.161V249.6H310.649L314.361 251.744V260.928L310.649 263.072L315.801 272H312.249L307.193 263.072ZM302.361 252.48V260.192H311.161V252.48H302.361ZM328.443 272V249.6H339.611L343.323 251.744V261.248L339.611 263.392H331.643V272H328.443ZM331.643 252.48V260.512H340.123V252.48H331.643ZM365.243 270.016L361.531 272.16H352.155L348.443 270.016V251.584L352.155 249.44H361.531L365.243 251.584V270.016ZM351.643 252.32V269.28H362.043V252.32H351.643ZM378.653 252.48V272H375.453V252.48H369.085V249.6H385.021V252.48H378.653ZM392.049 261.92V269.12H401.617V272H388.849V249.6H401.617V252.48H392.049V259.04H399.697V261.92H392.049ZM409.299 255.072V272H406.099V249.6H409.011L420.595 266.528H420.659V249.6H423.859V272H420.947L409.363 255.072H409.299ZM437.278 252.48V272H434.078V252.48H427.71V249.6H443.646V252.48H437.278ZM447.474 272V249.6H450.674V272H447.474ZM466.171 249.6L474.171 272H471.035L469.147 266.688H459.227L457.339 272H454.203L462.203 249.6H466.171ZM464.155 252.768L460.251 263.808H468.123L464.219 252.768H464.155ZM477.693 272V249.6H480.893V269.12H489.181V272H477.693ZM144.895 310.4H148.095V314.016L144.383 316.16H135.967L132.255 314.016V295.584L135.967 293.44H144.383L148.095 295.584V299.2H144.895V296.32H135.455V313.28H144.895V310.4ZM161.568 307.072H156.736V316H153.536V293.6H165.024L168.736 295.744V304.928L165.024 307.072L170.176 316H166.624L161.568 307.072ZM156.736 296.48V304.192H165.536V296.48H156.736ZM184.233 293.6L192.233 316H189.097L187.209 310.688H177.289L175.401 316H172.265L180.265 293.6H184.233ZM182.217 296.768L178.313 307.808H186.185L182.281 296.768H182.217ZM198.955 305.92V316H195.755V293.6H208.843V296.48H198.955V303.04H206.923V305.92H198.955ZM220.341 296.48V316H217.141V296.48H210.773V293.6H226.708V296.48H220.341ZM246.881 307.072H242.049V316H238.849V293.6H250.337L254.049 295.744V304.928L250.337 307.072L255.489 316H251.937L246.881 307.072ZM242.049 296.48V304.192H250.849V296.48H242.049ZM263.018 305.92V313.12H272.586V316H259.818V293.6H272.586V296.48H263.018V303.04H270.666V305.92H263.018ZM286.796 293.6L294.796 316H291.66L289.772 310.688H279.852L277.964 316H274.828L282.828 293.6H286.796ZM284.78 296.768L280.876 307.808H288.748L284.844 296.768H284.78ZM298.318 316V293.6H301.518V313.12H309.806V316H298.318ZM321.943 304.16V295.584L325.655 293.44H333.111L336.823 295.584V298.88H333.623V296.32H325.143V303.104H333.111L336.823 305.248V314.016L333.111 316.16H325.335L321.623 314.016V310.72H324.823V313.28H333.623V306.304H325.655L321.943 304.16ZM342.568 316V293.6H345.768V305.44H345.832L355.72 293.6H359.56L350.76 304.064L360.584 316H356.68L348.808 306.368L345.768 309.984V316H342.568ZM363.786 316V293.6H366.986V316H363.786ZM372.755 316V293.6H375.955V313.12H384.243V316H372.755ZM388.068 316V293.6H391.268V313.12H399.556V316H388.068ZM403.38 304.16V295.584L407.092 293.44H414.548L418.26 295.584V298.88H415.06V296.32H406.58V303.104H414.548L418.26 305.248V314.016L414.548 316.16H406.772L403.06 314.016V310.72H406.26V313.28H415.06V306.304H407.092L403.38 304.16ZM432.638 316V311.2H437.438V316H432.638ZM433.758 307.424L432.926 292.64H437.15L436.318 307.424H433.758Z" fill="white"/>
<path d="M189.972 103.428C185.77 107.709 181.252 112.476 176.075 115.336C161.803 123.248 144.952 121.919 132.243 111.745C115.575 98.3871 113.494 74.6424 126.223 58.0991C139.714 40.5822 165.863 38.2797 182.552 53.1088C185.144 55.4146 187.631 57.832 190.013 60.361C190.076 60.43 190.153 60.4845 190.239 60.5208C190.326 60.5571 190.419 60.5745 190.512 60.5716C190.606 60.5687 190.697 60.5457 190.781 60.5041C190.865 60.4625 190.939 60.4033 190.998 60.3306L238.89 0.50715C239.014 0.349253 239.171 0.221507 239.35 0.133628C239.53 0.0457502 239.727 5.26904e-05 239.926 0L274.582 0.0101452C274.658 0.00946875 274.733 0.0307737 274.797 0.0716198C274.862 0.112466 274.914 0.171194 274.947 0.241077C274.979 0.31096 274.992 0.389166 274.983 0.466724C274.974 0.544282 274.944 0.618054 274.896 0.679579L210.315 81.2455C210.173 81.4211 210.096 81.6403 210.096 81.867C210.096 82.0938 210.173 82.3145 210.315 82.4931L274.998 163.221C275.04 163.273 275.066 163.336 275.074 163.402C275.082 163.469 275.071 163.536 275.042 163.596C275.014 163.657 274.969 163.708 274.912 163.744C274.856 163.78 274.791 163.799 274.724 163.799L240.098 163.779C239.855 163.779 239.614 163.725 239.394 163.619C239.175 163.514 238.982 163.361 238.829 163.171L191.038 103.479C190.975 103.4 190.896 103.336 190.806 103.29C190.716 103.244 190.618 103.218 190.517 103.213C190.416 103.208 190.315 103.225 190.221 103.262C190.127 103.299 190.042 103.356 189.972 103.428ZM164.128 74.2874C157.986 68.6681 147.876 71.5082 146.485 79.8559C144.881 89.5222 155.55 96.0441 163.458 89.7149C165.88 87.7809 168.459 85.3094 171.193 82.3003C171.497 81.969 171.494 81.6377 171.183 81.3063C168.672 78.6353 166.32 76.2957 164.128 74.2874Z" fill="white"/>
<path d="M266.745 82.1077L331.834 163.252C331.874 163.301 331.9 163.361 331.908 163.424C331.915 163.488 331.905 163.552 331.877 163.61C331.849 163.668 331.806 163.716 331.751 163.75C331.697 163.783 331.634 163.801 331.57 163.799L296.295 163.779C296.244 163.78 296.194 163.769 296.149 163.748C296.103 163.727 296.063 163.696 296.031 163.657L230.566 82.0671C230.517 82.0072 230.49 81.9318 230.49 81.8541C230.49 81.7764 230.517 81.7011 230.566 81.6411L295.828 0.13192C295.86 0.0931257 295.9 0.0620409 295.946 0.0409691C295.991 0.0198972 296.041 0.00938493 296.092 0.0102085H331.417C331.481 0.00914666 331.544 0.0264204 331.599 0.059998C331.653 0.0935756 331.697 0.142046 331.725 0.19967C331.753 0.257294 331.763 0.321664 331.755 0.385154C331.748 0.448645 331.722 0.508597 331.681 0.557924L266.745 81.6817C266.695 81.7416 266.668 81.817 266.668 81.8947C266.668 81.9724 266.695 82.0477 266.745 82.1077Z" fill="white"/>
<path d="M380.386 60.2292C382.572 57.707 384.873 55.3944 387.289 53.2914C403.256 39.3955 426.594 39.862 441.546 55.4113C459.636 74.2265 453.565 105.213 430.472 116.442C419.698 121.676 408.596 121.845 397.166 116.949C390.72 114.19 385.106 108.733 380.417 103.601C379.916 103.046 379.428 103.06 378.955 103.641L342.756 148.778C342.676 148.877 342.575 148.957 342.46 149.012C342.345 149.068 342.219 149.096 342.091 149.096C341.964 149.096 341.838 149.068 341.722 149.012C341.607 148.957 341.506 148.877 341.426 148.778L324.362 127.538C324.265 127.414 324.212 127.261 324.212 127.105C324.212 126.948 324.265 126.797 324.362 126.676L359.921 82.3714C360.032 82.233 360.092 82.0614 360.092 81.8845C360.092 81.7076 360.032 81.536 359.921 81.3976L324.159 36.8191C324.118 36.7677 324.095 36.7041 324.095 36.6393C324.095 36.5745 324.118 36.5126 324.159 36.4641L341.721 14.3625C341.765 14.3056 341.822 14.2596 341.887 14.2279C341.952 14.1962 342.024 14.1798 342.096 14.1798C342.169 14.1798 342.24 14.1962 342.305 14.2279C342.37 14.2596 342.427 14.3056 342.472 14.3625L379.036 60.1988C379.116 60.3004 379.217 60.3832 379.332 60.441C379.448 60.4989 379.575 60.5304 379.704 60.5333C379.833 60.5362 379.961 60.5104 380.079 60.4578C380.197 60.4053 380.302 60.3272 380.386 60.2292ZM407.469 90.3235C413.773 94.8574 422.777 90.7495 423.721 83.3451C424.756 75.1293 417.234 69.2666 409.631 72.0255C405.815 73.4151 402.414 77.807 399.521 80.7789C399.276 81.0274 399.135 81.3595 399.123 81.7102C399.112 82.061 399.232 82.4053 399.46 82.6757C402.174 85.8876 404.843 88.4369 407.469 90.3235Z" fill="white"/>
<path d="M141.849 226H134.457L127.257 213.328H123.081V226H116.361V192.4H134.553L140.121 195.616V210.112L134.553 213.328L141.849 226ZM123.081 198.16V207.568H133.401V198.16H123.081ZM161.003 211.6V220.24H174.395V226H154.283V192.4H174.395V198.16H161.003V205.84H171.515V211.6H161.003ZM202.179 192.4L214.179 226H207.555L205.011 218.752H192.435L189.891 226H183.267L195.267 192.4H202.179ZM198.675 200.848L194.451 212.992H202.947L198.771 200.848H198.675ZM224.971 226V192.4H231.691V220.24H243.163V226H224.971ZM272.924 208.96V195.376L278.492 192.16H290.636L296.204 195.376V201.76H289.484V197.92H279.644V205.936H290.636L296.204 209.152V223.024L290.636 226.24H278.012L272.444 223.024V216.64H279.164V220.48H289.484V212.176H278.492L272.924 208.96ZM310.377 226V192.4H317.097V207.52H317.193L329.721 192.4H337.689L324.441 208.144L339.177 226H331.113L320.409 212.944L317.097 216.832V226H310.377ZM349.518 226V192.4H356.238V226H349.518ZM370.377 226V192.4H377.097V220.24H388.569V226H370.377ZM399.861 226V192.4H406.581V220.24H418.053V226H399.861ZM429.346 208.96V195.376L434.914 192.16H447.058L452.626 195.376V201.76H445.906V197.92H436.066V205.936H447.058L452.626 209.152V223.024L447.058 226.24H434.434L428.866 223.024V216.64H435.586V220.48H445.906V212.176H434.914L429.346 208.96Z" fill="white"/>
</svg>
