<svg width="337" height="35" viewBox="0 0 337 35" fill="none" xmlns="http://www.w3.org/2000/svg">
<path d="M25.8493 34H18.4573L11.2573 21.328H7.08125V34H0.36125V0.399998H18.5533L24.1213 3.616V18.112L18.5533 21.328L25.8493 34ZM7.08125 6.16V15.568H17.4013V6.16H7.08125ZM45.0031 19.6V28.24H58.3951V34H38.2831V0.399998H58.3951V6.16H45.0031V13.84H55.5151V19.6H45.0031ZM86.1789 0.399998L98.1789 34H91.5549L89.0109 26.752H76.4349L73.8909 34H67.2669L79.2669 0.399998H86.1789ZM82.6749 8.848L78.4509 20.992H86.9469L82.7709 8.848H82.6749ZM108.971 34V0.399998H115.691V28.24H127.163V34H108.971ZM156.924 16.96V3.376L162.492 0.159998H174.636L180.204 3.376V9.76H173.484V5.92H163.644V13.936H174.636L180.204 17.152V31.024L174.636 34.24H162.012L156.444 31.024V24.64H163.164V28.48H173.484V20.176H162.492L156.924 16.96ZM194.377 34V0.399998H201.097V15.52H201.193L213.721 0.399998H221.689L208.441 16.144L223.177 34H215.113L204.409 20.944L201.097 24.832V34H194.377ZM233.518 34V0.399998H240.238V34H233.518ZM254.377 34V0.399998H261.097V28.24H272.569V34H254.377ZM283.861 34V0.399998H290.581V28.24H302.053V34H283.861ZM313.346 16.96V3.376L318.914 0.159998H331.058L336.626 3.376V9.76H329.906V5.92H320.066V13.936H331.058L336.626 17.152V31.024L331.058 34.24H318.434L312.866 31.024V24.64H319.586V28.48H329.906V20.176H318.914L313.346 16.96Z" fill="white"/>
</svg>
