<svg width="335" height="164" viewBox="0 0 335 164" fill="none" xmlns="http://www.w3.org/2000/svg">
<path d="M71.9723 103.428C67.7697 107.709 63.2525 112.476 58.0754 115.336C43.803 123.248 26.9522 121.919 14.2431 111.745C-2.42502 98.3871 -4.50599 74.6424 8.22347 58.0991C21.7143 40.5822 47.8634 38.2797 64.5518 53.1088C67.1437 55.4146 69.6307 57.832 72.0129 60.361C72.076 60.43 72.1533 60.4845 72.2395 60.5208C72.3257 60.5571 72.4187 60.5745 72.5122 60.5716C72.6057 60.5687 72.6974 60.5457 72.7812 60.5041C72.865 60.4625 72.9387 60.4033 72.9975 60.3306L120.89 0.50715C121.014 0.349253 121.171 0.221507 121.35 0.133628C121.53 0.0457502 121.727 5.26904e-05 121.926 0L156.582 0.0101452C156.658 0.00946875 156.733 0.0307737 156.797 0.0716198C156.862 0.112466 156.914 0.171194 156.947 0.241077C156.979 0.31096 156.992 0.389166 156.983 0.466724C156.974 0.544282 156.944 0.618054 156.896 0.679579L92.315 81.2455C92.1734 81.4211 92.0962 81.6403 92.0962 81.867C92.0962 82.0938 92.1734 82.3145 92.315 82.4931L156.998 163.221C157.04 163.273 157.066 163.336 157.074 163.402C157.082 163.469 157.071 163.536 157.042 163.596C157.014 163.657 156.969 163.708 156.912 163.744C156.856 163.78 156.791 163.799 156.724 163.799L122.098 163.779C121.855 163.779 121.614 163.725 121.394 163.619C121.175 163.514 120.982 163.361 120.829 163.171L73.0381 103.479C72.9751 103.4 72.896 103.336 72.8061 103.29C72.7162 103.244 72.6175 103.218 72.5167 103.213C72.4158 103.208 72.3151 103.225 72.2212 103.262C72.1273 103.299 72.0425 103.356 71.9723 103.428ZM46.1276 74.2874C39.9862 68.6681 29.8757 71.5082 28.485 79.8559C26.8812 89.5222 37.5499 96.0441 45.4576 89.7149C47.8804 87.7809 50.4587 85.3094 53.1928 82.3003C53.4973 81.969 53.4939 81.6377 53.1826 81.3063C50.6719 78.6353 48.3202 76.2957 46.1276 74.2874Z" fill="white"/>
<path d="M148.745 82.1077L213.834 163.252C213.874 163.301 213.9 163.361 213.908 163.424C213.915 163.488 213.905 163.552 213.877 163.61C213.849 163.668 213.806 163.716 213.751 163.75C213.697 163.783 213.634 163.801 213.57 163.799L178.295 163.779C178.244 163.78 178.194 163.769 178.149 163.748C178.103 163.727 178.063 163.696 178.031 163.657L112.566 82.0671C112.517 82.0072 112.49 81.9318 112.49 81.8541C112.49 81.7764 112.517 81.7011 112.566 81.6411L177.828 0.13192C177.86 0.0931257 177.9 0.0620409 177.946 0.0409691C177.991 0.0198972 178.041 0.00938493 178.092 0.0102085H213.417C213.481 0.00914666 213.544 0.0264204 213.599 0.059998C213.653 0.0935756 213.697 0.142046 213.725 0.19967C213.753 0.257294 213.763 0.321664 213.755 0.385154C213.748 0.448645 213.722 0.508597 213.681 0.557924L148.745 81.6817C148.695 81.7416 148.668 81.817 148.668 81.8947C148.668 81.9724 148.695 82.0477 148.745 82.1077Z" fill="white"/>
<path d="M262.386 60.2292C264.572 57.707 266.873 55.3944 269.289 53.2914C285.256 39.3955 308.594 39.862 323.546 55.4113C341.636 74.2265 335.565 105.213 312.472 116.442C301.698 121.676 290.596 121.845 279.166 116.949C272.72 114.19 267.106 108.733 262.417 103.601C261.916 103.046 261.428 103.06 260.955 103.641L224.756 148.778C224.676 148.877 224.575 148.957 224.46 149.012C224.345 149.068 224.219 149.096 224.091 149.096C223.964 149.096 223.838 149.068 223.722 149.012C223.607 148.957 223.506 148.877 223.426 148.778L206.362 127.538C206.265 127.414 206.212 127.261 206.212 127.105C206.212 126.948 206.265 126.797 206.362 126.676L241.921 82.3714C242.032 82.233 242.092 82.0614 242.092 81.8845C242.092 81.7076 242.032 81.536 241.921 81.3976L206.159 36.8191C206.118 36.7677 206.095 36.7041 206.095 36.6393C206.095 36.5745 206.118 36.5126 206.159 36.4641L223.721 14.3625C223.765 14.3056 223.822 14.2596 223.887 14.2279C223.952 14.1962 224.024 14.1798 224.096 14.1798C224.169 14.1798 224.24 14.1962 224.305 14.2279C224.37 14.2596 224.427 14.3056 224.472 14.3625L261.036 60.1988C261.116 60.3004 261.217 60.3832 261.332 60.441C261.448 60.4989 261.575 60.5304 261.704 60.5333C261.833 60.5362 261.961 60.5104 262.079 60.4578C262.197 60.4053 262.302 60.3272 262.386 60.2292ZM289.469 90.3235C295.773 94.8574 304.777 90.7495 305.721 83.3451C306.756 75.1293 299.234 69.2666 291.631 72.0255C287.815 73.4151 284.414 77.807 281.521 80.7789C281.276 81.0274 281.135 81.3595 281.123 81.7102C281.112 82.061 281.232 82.4052 281.46 82.6757C284.174 85.8876 286.843 88.4369 289.469 90.3235Z" fill="white"/>
</svg>
