<svg width="14" height="14" viewBox="0 0 14 14" fill="none" xmlns="http://www.w3.org/2000/svg">
<g id="clarity:book-line" clip-path="url(#clip0_99_3456)">
<path id="Vector" d="M3.88867 2.02222H10.8887V2.62499H3.88867V2.02222Z" fill="#73CA5C"/>
<path id="Vector_2" d="M11.2773 3.11117H3.83401C3.73477 3.10976 3.63684 3.08827 3.54613 3.04798C3.45541 3.0077 3.3738 2.94946 3.30621 2.87678C3.23861 2.8041 3.18644 2.71849 3.15284 2.62509C3.11923 2.5317 3.10489 2.43247 3.11068 2.33339C3.11019 2.1362 3.18462 1.9462 3.31891 1.8018C3.45319 1.65741 3.63731 1.56941 3.83401 1.55561H11.2773C11.3805 1.55561 11.4794 1.51464 11.5523 1.44171C11.6253 1.36878 11.6662 1.26986 11.6662 1.16672C11.6662 1.06358 11.6253 0.964666 11.5523 0.891735C11.4794 0.818804 11.3805 0.777832 11.2773 0.777832H3.83401C3.43096 0.791947 3.04915 0.962046 2.7691 1.25225C2.48905 1.54246 2.33265 1.93009 2.3329 2.33339C2.32914 2.39685 2.32914 2.46048 2.3329 2.52394C2.32915 2.55494 2.32915 2.58628 2.3329 2.61728V11.6667C2.33265 12.07 2.48905 12.4576 2.7691 12.7479C3.04915 13.0381 3.43096 13.2082 3.83401 13.2223H11.2773C11.3805 13.2223 11.4794 13.1813 11.5523 13.1084C11.6253 13.0354 11.6662 12.9365 11.6662 12.8334V3.52728C11.6665 3.42148 11.6264 3.31956 11.5541 3.24226C11.4819 3.16496 11.3829 3.11809 11.2773 3.11117ZM10.8885 12.4445H3.83401C3.63731 12.4307 3.45319 12.3427 3.31891 12.1983C3.18462 12.0539 3.11019 11.8639 3.11068 11.6667V3.71394C3.3318 3.83593 3.58159 3.89636 3.83401 3.88894H10.8885V12.4445Z" fill="#73CA5C"/>
</g>
<defs>
<clipPath id="clip0_99_3456">
<rect width="14" height="14" fill="white"/>
</clipPath>
</defs>
</svg>
